<?xml version="1.0" encoding="utf-8"?>
<!-- Generator: Adobe Illustrator 17.0.0, SVG Export Plug-In . SVG Version: 6.00 Build 0)  -->
<!DOCTYPE svg PUBLIC "-//W3C//DTD SVG 1.1//EN" "http://www.w3.org/Graphics/SVG/1.1/DTD/svg11.dtd">
<svg version="1.1" id="Layer_1" xmlns="http://www.w3.org/2000/svg" xmlns:xlink="http://www.w3.org/1999/xlink" x="0px" y="0px"
	 width="456px" height="324.831px" viewBox="0 0 456 324.831" enable-background="new 0 0 456 324.831" xml:space="preserve">
<path fill="#4F5A5E" d="M411.539,0H44.46C19.942,0,0,19.956,0,44.46v235.911c0,9.12,2.762,17.892,7.966,25.376
	c2.306,3.313,5.311,6.022,8.745,7.98c2.534,3.004,5.713,5.46,9.401,7.135c5.781,2.629,11.963,3.969,18.348,3.969h367.079
	c5.86,0,11.561-1.14,16.967-3.364c3.782-1.558,7.08-3.945,9.736-6.896c3.529-1.862,6.64-4.505,9.067-7.804
	c5.686-7.699,8.691-16.831,8.691-26.396V44.46C456,19.956,436.056,0,411.539,0 M31.65,282.169c-0.092-0.589-0.132-1.193-0.132-1.798
	V69.526l123.481,90.771L31.65,282.169z M47.062,293.313l123.24-121.764l57.617,42.367l57.282-42.111l122.986,121.508H47.062z
	 M424.481,280.371c0,0.819-0.08,1.638-0.228,2.429L300.504,160.551l123.977-91.147V280.371z M424.481,46.297L227.919,190.809
	L31.518,46.404V44.46c0-7.136,5.806-12.942,12.942-12.942h367.079c7.136,0,12.942,5.806,12.942,12.942V46.297z"/>
</svg>
